# xmcd
#
# Track frame offsets: 
#        150
#        22298
#        51913
#        77056
#        105400
#        139412
#        169438
#        195529
#        214709
#        239190
#
# Disc length: 3553 seconds
#
# Revision: 0
# Processed by: cddbd v1.5.1PL0 Copyright (c) Steve Scherf et al.
# Submitted via: ExactAudioCopy v0.95a5
#
DISCID=970ddf0a
DTITLE=William Clarke - Live in Germany
DYEAR=1995
DGENRE=Blues
TTITLE0=Blowin' like Hell
TTITLE1=She's Dynamite
TTITLE2=Looki' to the Future
TTITLE3=I Cried all Last Night
TTITLE4=All Night Long
TTITLE5=Iodine in my Coffee
TTITLE6=Educated Fool
TTITLE7=Been Around the World
TTITLE8=On Room Country Shack
TTITLE9=Lollipop Mama
EXTD=
EXTT0=
EXTT1=
EXTT2=
EXTT3=
EXTT4=
EXTT5=
EXTT6=
EXTT7=
EXTT8=
EXTT9=
PLAYORDER=
